<svg height="512pt" viewBox="-32 0 512 512" width="512pt" xmlns="http://www.w3.org/2000/svg"><path d="m17.398438 484.398438h110.203124c3.597657 0 6.398438 3 6.398438 6.402343v9.597657c0 3.601562-3 6.402343-6.398438 6.402343h-110.203124c-3.597657 0-6.398438-3-6.398438-6.402343v-9.597657c0-3.601562 3-6.402343 6.398438-6.402343zm0 0" fill="#fcd770"/><path d="m27.601562 439h110.199219c3.597657 0 6.398438 3 6.398438 6.398438v9.601562c0 3.601562-3 6.398438-6.398438 6.398438h-110.199219c-3.601562 0-6.402343-3-6.402343-6.398438v-9.601562c0-3.398438 3-6.398438 6.402343-6.398438zm0 0" fill="#fcd770"/><path d="m177.199219 393.800781h110.199219c3.601562 0 6.402343 3 6.402343 6.398438v9.601562c0 3.597657-3 6.398438-6.402343 6.398438h-110.199219c-3.597657 0-6.398438-3-6.398438-6.398438v-9.601562c0-3.597657 2.800781-6.398438 6.398438-6.398438zm0 0" fill="#fcd770"/><path d="m167 484.398438h110.199219c3.601562 0 6.402343 3 6.402343 6.402343v9.597657c0 3.601562-3 6.402343-6.402343 6.402343h-110.199219c-3.601562 0-6.398438-3-6.398438-6.402343v-9.597657c0-3.601562 2.796876-6.402343 6.398438-6.402343zm0 0" fill="#fcd770"/><path d="m167 439h110.199219c3.601562 0 6.402343 3 6.402343 6.398438v9.601562c0 3.601562-3 6.398438-6.402343 6.398438h-110.199219c-3.601562 0-6.398438-3-6.398438-6.398438v-9.601562c0-3.398438 2.796876-6.398438 6.398438-6.398438zm0 0" fill="#fcd770"/><path d="m326.800781 325.800781h110.199219c3.601562 0 6.398438 3 6.398438 6.398438v9.601562c0 3.597657-3 6.398438-6.398438 6.398438h-110.199219c-3.601562 0-6.402343-3-6.402343-6.398438v-9.601562c0-3.597657 2.800781-6.398438 6.402343-6.398438zm0 0" fill="#fcd770"/><path d="m316.601562 416.398438h110.199219c3.597657 0 6.398438 3 6.398438 6.402343v9.597657c0 3.601562-3 6.402343-6.398438 6.402343h-110.199219c-3.601562 0-6.402343-3-6.402343-6.402343v-9.597657c0-3.601562 2.800781-6.402343 6.402343-6.402343zm0 0" fill="#fcd770"/><path d="m316.601562 371h110.199219c3.597657 0 6.398438 3 6.398438 6.398438v9.601562c0 3.601562-3 6.398438-6.398438 6.398438h-110.199219c-3.601562 0-6.402343-3-6.402343-6.398438v-9.601562c0-3.398438 2.800781-6.398438 6.402343-6.398438zm0 0" fill="#fcd770"/><path d="m316.601562 461.601562h110.199219c3.597657 0 6.398438 3 6.398438 6.398438v9.601562c0 3.597657-3 6.398438-6.398438 6.398438h-110.199219c-3.601562 0-6.402343-3-6.402343-6.398438v-9.601562c0-3.398438 2.800781-6.398438 6.402343-6.398438zm0 0" fill="#fcd770"/><path d="m17.398438 461.601562h110.203124c3.597657 0 6.398438 3 6.398438 6.398438v9.601562c0 3.597657-3 6.398438-6.398438 6.398438h-110.203124c-3.597657 0-6.398438-3-6.398438-6.398438v-9.601562c0-3.398438 3-6.398438 6.398438-6.398438zm0 0" fill="#ffae2c"/><path d="m17.398438 416.398438h110.203124c3.597657 0 6.398438 3 6.398438 6.402343v9.597657c0 3.601562-3 6.402343-6.398438 6.402343h-110.203124c-3.597657 0-6.398438-3-6.398438-6.402343v-9.597657c0-3.601562 3-6.402343 6.398438-6.402343zm0 0" fill="#ffae2c"/><path d="m167 416.398438h110.199219c3.601562 0 6.402343 3 6.402343 6.402343v9.597657c0 3.601562-3 6.402343-6.402343 6.402343h-110.199219c-3.601562 0-6.398438-3-6.398438-6.402343v-9.597657c0-3.601562 2.796876-6.402343 6.398438-6.402343zm0 0" fill="#ffae2c"/><path d="m167 371h110.199219c3.601562 0 6.402343 3 6.402343 6.398438v9.601562c0 3.601562-3 6.398438-6.402343 6.398438h-110.199219c-3.601562 0-6.398438-3-6.398438-6.398438v-9.601562c0-3.398438 2.796876-6.398438 6.398438-6.398438zm0 0" fill="#ffae2c"/><path d="m167 461.601562h110.199219c3.601562 0 6.402343 3 6.402343 6.398438v9.601562c0 3.597657-3 6.398438-6.402343 6.398438h-110.199219c-3.601562 0-6.398438-3-6.398438-6.398438v-9.601562c0-3.398438 2.796876-6.398438 6.398438-6.398438zm0 0" fill="#ffae2c"/><path d="m316.601562 348.398438h110.199219c3.597657 0 6.398438 3 6.398438 6.402343v9.597657c0 3.601562-3 6.402343-6.398438 6.402343h-110.199219c-3.601562 0-6.402343-3-6.402343-6.402343v-9.597657c0-3.402343 2.800781-6.402343 6.402343-6.402343zm0 0" fill="#ffae2c"/><path d="m316.601562 303h110.199219c3.597657 0 6.398438 3 6.398438 6.398438v9.601562c0 3.601562-3 6.398438-6.398438 6.398438h-110.199219c-3.601562 0-6.402343-3-6.402343-6.398438v-9.601562c0-3.398438 2.800781-6.398438 6.402343-6.398438zm0 0" fill="#ffae2c"/><path d="m316.601562 393.800781h110.199219c3.597657 0 6.398438 3 6.398438 6.398438v9.601562c0 3.597657-3 6.398438-6.398438 6.398438h-110.199219c-3.601562 0-6.402343-3-6.402343-6.398438v-9.601562c0-3.597657 2.800781-6.398438 6.402343-6.398438zm0 0" fill="#ffae2c"/><path d="m316.601562 484.398438h110.199219c3.597657 0 6.398438 3 6.398438 6.402343v9.597657c0 3.601562-3 6.402343-6.398438 6.402343h-110.199219c-3.601562 0-6.402343-3-6.402343-6.402343v-9.597657c0-3.601562 2.800781-6.402343 6.402343-6.402343zm0 0" fill="#ffae2c"/><path d="m316.601562 439h110.199219c3.597657 0 6.398438 3 6.398438 6.398438v9.601562c0 3.601562-3 6.398438-6.398438 6.398438h-110.199219c-3.601562 0-6.402343-3-6.402343-6.398438v-9.601562c0-3.398438 2.800781-6.398438 6.402343-6.398438zm0 0" fill="#ffae2c"/><path d="m371.601562 303c-34.203124 0-62-27.800781-62-62s27.796876-62 62-62c34.199219 0 62 27.800781 62 62s-27.601562 62-62 62zm0 0" fill="#fcd770"/><path d="m371.601562 196.199219c-24.800781 0-44.800781 20-44.800781 44.800781s20 44.800781 44.800781 44.800781c24.796876 0 44.796876-20 44.796876-44.800781 0-24.601562-20-44.601562-44.796876-44.800781zm0 0" fill="#ffae2c"/><path d="m423.800781 58.800781h-40.402343c-5.597657 0-10 4.398438-10 10 0 5.597657 4.402343 10 10 10h13.800781l-15.398438 13.398438c-101.601562 89-232 138-367 138-5.601562 0-10 4.402343-10 10 0 5.601562 4.398438 10 10 10 139.800781 0 274.800781-50.800781 380-142.800781l18.800781-16.398438v18.398438c0 5.601562 4.398438 10 10 10 5.597657 0 10-4.398438 10-10v-40.597657c.199219-5.402343-4.402343-9.800781-9.800781-10zm0 0" fill="#60bae2"/><path d="m235.601562 139.398438c-8.800781-1.796876-15.800781-8.597657-17.601562-17.597657 0-.199219-.199219-.402343-.398438-.199219-.203124 0-.203124.199219-.203124.199219-1.796876 8.800781-8.597657 15.800781-17.597657 17.597657-.199219 0-.402343.203124-.199219.402343 0 .199219.199219.199219.199219.199219 8.800781 1.800781 15.800781 8.601562 17.597657 17.601562 0 .199219.203124.398438.402343.199219.199219 0 .199219-.199219.199219-.199219 1.800781-8.800781 8.601562-15.800781 17.601562-17.601562.199219 0 .398438-.199219.199219-.398438 0 0-.199219-.203124-.199219-.203124zm0 0" fill="#f75c64"/><path d="m286 18.601562h-17.398438c-2.800781 0-5-2.203124-5-5 0-2.800781 2.199219-5 5-5h17.398438c2.800781 0 5 2.199219 5 5 0 2.796876-2.199219 5-5 5zm0 0" fill="#60bae2"/><path d="m277.398438 27.199219c-2.796876 0-5-2.199219-5-5v-17.199219c0-2.800781 2.203124-5 5-5 2.800781 0 5 2.199219 5 5v17.398438c-.199219 2.601562-2.398438 4.800781-5 4.800781zm0 0" fill="#60bae2"/><path d="m305.398438 63.800781c-1.398438 0-2.597657-.601562-3.597657-1.402343-.199219-.199219-.402343-.398438-.601562-.796876-.199219-.203124-.398438-.601562-.398438-.800781-.199219-.199219-.199219-.601562-.199219-1 0-.402343-.203124-.601562-.203124-1 0-.402343 0-.601562.203124-1 0-.402343.199219-.601562.199219-1 .199219-.402343.199219-.601562.398438-.800781s.402343-.601562.601562-.800781c1.398438-1.398438 3.597657-1.800781 5.398438-1 .199219.199219.601562.199219.800781.402343.199219.199219.601562.398438.800781.597657s.398438.402343.597657.800781c.203124.199219.402343.601562.402343.800781.199219.199219.199219.597657.199219 1 0 .398438 0 .597657.199219 1 0 .398438 0 .597657-.199219 1 0 .398438-.199219.597657-.199219 1-.199219.398438-.199219.597657-.402343.800781-.199219.199219-.398438.597657-.597657.796876-.199219.203124-.402343.402343-.800781.601562-.199219.199219-.601562.398438-.800781.398438-.398438.203124-.597657.203124-1 .203124-.199219.199219-.398438.199219-.800781.199219zm0 0" fill="#fcd770"/><path d="m431.398438 169.800781c-1.398438 0-2.597657-.601562-3.597657-1.402343-.199219-.199219-.402343-.398438-.601562-.796876-.199219-.203124-.398438-.601562-.398438-.800781-.199219-.199219-.199219-.601562-.199219-1 0-.402343-.203124-.601562-.203124-1 0-.402343 0-.601562.203124-1 0-.402343.199219-.601562.199219-1 .199219-.402343.199219-.601562.398438-.800781s.402343-.601562.601562-.800781c1.398438-1.398438 3.597657-1.800781 5.398438-1 .199219.199219.601562.199219.800781.402343.199219.199219.601562.398438.800781.597657s.398438.402343.597657.800781c.203124.199219.402343.601562.402343.800781.199219.199219.199219.597657.199219 1 0 .398438 0 .597657.199219 1 0 .398438 0 .597657-.199219 1 0 .398438-.199219.597657-.199219 1-.199219.398438-.199219.597657-.402343.800781-.199219.199219-.398438.597657-.597657.796876-.199219.203124-.402343.402343-.800781.601562-.199219.199219-.601562.398438-.800781.398438-.398438.203124-.597657.203124-1 .203124-.199219.199219-.597657.199219-.800781.199219zm0 0" fill="#6dcc6d"/><g fill="#231f20"><path d="m15 255.199219c-8.199219 0-15-6.800781-15-15s6.800781-15 15-15c133.800781 0 263-48.597657 363.601562-136.597657l5.398438-4.601562h-.398438c-8.203124 0-15-6.800781-15-15s6.796876-15 15-15h40.398438c8.199219 0 15 6.800781 15 15v40.398438c0 8.203124-6.800781 15-15 15s-15-6.796876-15-15v-7.398438l-10.398438 9.199219c-106.402343 92.800781-242.601562 144-383.601562 144zm368.398438-191.398438c-2.796876 0-5 2.199219-5 5s2.203124 5 5 5h13.800781c2.800781 0 5 2.199219 5 5 0 1.398438-.597657 2.800781-1.800781 3.800781l-15.398438 13.398438c-102.398438 89.800781-234 139.199219-370.199219 139.199219-2.800781 0-5 2.199219-5 5s2.199219 5 5 5c138.597657 0 272.398438-50.398438 376.800781-141.597657l18.796876-16.402343c2-1.800781 5.203124-1.597657 7 .402343.800781 1 1.203124 2 1.203124 3.199219v18.398438c0 2.800781 2.199219 5 5 5 2.796876 0 5-2.199219 5-5v-40.398438c0-2.800781-2.203124-5-5-5zm0 0"/><path d="m127.601562 489.398438h-110.203124c-6.398438 0-11.398438-5.199219-11.398438-11.398438v-9.601562c0-6.398438 5.199219-11.398438 11.398438-11.398438h110.203124c6.398438 0 11.398438 5.199219 11.398438 11.398438v9.601562c.199219 6.199219-5 11.398438-11.398438 11.398438zm-110.203124-22.796876c-.796876 0-1.398438.597657-1.398438 1.398438v9.601562c0 .796876.601562 1.398438 1.398438 1.398438h110.203124c.796876 0 1.398438-.601562 1.398438-1.398438v-9.601562c0-.800781-.601562-1.398438-1.398438-1.398438zm0 0"/><path d="m127.601562 512h-110.203124c-6.398438 0-11.398438-5.199219-11.398438-11.398438v-9.601562c0-6.398438 5.199219-11.398438 11.398438-11.398438h110.203124c6.398438 0 11.398438 5.199219 11.398438 11.398438v9.601562c.199219 6.199219-5 11.398438-11.398438 11.398438zm-110.203124-22.601562c-.796876 0-1.398438.601562-1.398438 1.402343v9.597657c0 .800781.601562 1.402343 1.398438 1.402343h110.203124c.796876 0 1.398438-.601562 1.398438-1.402343v-9.597657c0-.800781-.601562-1.402343-1.398438-1.402343zm0 0"/><path d="m137.800781 466.601562h-110.199219c-6.402343 0-11.402343-5.203124-11.402343-11.402343v-9.597657c0-6.402343 5.199219-11.402343 11.402343-11.402343h110.199219c6.398438 0 11.398438 5.199219 11.398438 11.402343v9.597657c.199219 6.402343-5 11.402343-11.398438 11.402343zm-110.199219-22.601562c-.800781 0-1.402343.601562-1.402343 1.398438v9.601562c0 .800781.601562 1.398438 1.402343 1.398438h110.199219c.800781 0 1.398438-.597657 1.398438-1.398438v-9.601562c0-.796876-.597657-1.398438-1.398438-1.398438zm0 0"/><path d="m127.601562 444h-110.203124c-6.398438 0-11.398438-5.199219-11.398438-11.398438v-9.601562c0-6.398438 5.199219-11.398438 11.398438-11.398438h110.203124c6.398438 0 11.398438 5.199219 11.398438 11.398438v9.601562c.199219 6.199219-5 11.398438-11.398438 11.398438zm-110.203124-22.601562c-.796876 0-1.398438.601562-1.398438 1.402343v9.597657c0 .800781.601562 1.402343 1.398438 1.402343h110.203124c.796876 0 1.398438-.601562 1.398438-1.402343v-9.597657c0-.800781-.601562-1.402343-1.398438-1.402343zm0 0"/><path d="m277.199219 444h-110.199219c-6.398438 0-11.398438-5.199219-11.398438-11.398438v-9.601562c0-6.398438 5.199219-11.398438 11.398438-11.398438h110.199219c6.402343 0 11.402343 5.199219 11.402343 11.398438v9.601562c0 6.199219-5 11.398438-11.402343 11.398438zm-110.199219-22.601562c-.800781 0-1.398438.601562-1.398438 1.402343v9.597657c0 .800781.597657 1.402343 1.398438 1.402343h110.199219c.800781 0 1.402343-.601562 1.402343-1.402343v-9.597657c0-.800781-.601562-1.402343-1.402343-1.402343zm0 0"/><path d="m287.398438 421.398438h-110.199219c-6.398438 0-11.398438-5.199219-11.398438-11.398438v-9.601562c0-6.398438 5.199219-11.398438 11.398438-11.398438h110.199219c6.402343 0 11.402343 5.199219 11.402343 11.398438v9.601562c0 6.199219-5 11.398438-11.402343 11.398438zm-110.199219-22.597657c-.800781 0-1.398438.597657-1.398438 1.398438v9.601562c0 .800781.597657 1.398438 1.398438 1.398438h110.199219c.800781 0 1.402343-.597657 1.402343-1.398438v-9.601562c0-.800781-.601562-1.398438-1.402343-1.398438zm0 0"/><path d="m277.199219 398.800781h-110.199219c-6.398438 0-11.398438-5.199219-11.398438-11.402343v-9.597657c0-6.402343 5.199219-11.402343 11.398438-11.402343h110.199219c6.402343 0 11.402343 5.203124 11.402343 11.402343v9.597657c0 6.203124-5 11.402343-11.402343 11.402343zm-110.199219-22.800781c-.800781 0-1.398438.601562-1.398438 1.398438v9.601562c0 .800781.597657 1.398438 1.398438 1.398438h110.199219c.800781 0 1.402343-.597657 1.402343-1.398438v-9.601562c0-.796876-.601562-1.398438-1.402343-1.398438zm0 0"/><path d="m277.199219 512h-110.199219c-6.398438 0-11.398438-5.199219-11.398438-11.398438v-9.601562c0-6.398438 5.199219-11.398438 11.398438-11.398438h110.199219c6.402343 0 11.402343 5.199219 11.402343 11.398438v9.601562c0 6.199219-5 11.398438-11.402343 11.398438zm-110.199219-22.601562c-.800781 0-1.398438.601562-1.398438 1.402343v9.597657c0 .800781.597657 1.402343 1.398438 1.402343h110.199219c.800781 0 1.402343-.601562 1.402343-1.402343v-9.597657c0-.800781-.601562-1.402343-1.402343-1.402343zm0 0"/><path d="m277.199219 489.398438h-110.199219c-6.398438 0-11.398438-5.199219-11.398438-11.398438v-9.601562c0-6.398438 5.199219-11.398438 11.398438-11.398438h110.199219c6.402343 0 11.402343 5.199219 11.402343 11.398438v9.601562c0 6.199219-5 11.398438-11.402343 11.398438zm-110.199219-22.796876c-.800781 0-1.398438.597657-1.398438 1.398438v9.601562c0 .796876.597657 1.398438 1.398438 1.398438h110.199219c.800781 0 1.402343-.601562 1.402343-1.398438v-9.601562c0-.800781-.601562-1.398438-1.402343-1.398438zm0 0"/><path d="m277.199219 466.601562h-110.199219c-6.398438 0-11.398438-5.203124-11.398438-11.402343v-9.597657c0-6.402343 5.199219-11.402343 11.398438-11.402343h110.199219c6.402343 0 11.402343 5.199219 11.402343 11.402343v9.597657c0 6.402343-5 11.402343-11.402343 11.402343zm-110.199219-22.601562c-.800781 0-1.398438.601562-1.398438 1.398438v9.601562c0 .800781.597657 1.398438 1.398438 1.398438h110.199219c.800781 0 1.402343-.597657 1.402343-1.398438v-9.601562c0-.796876-.601562-1.398438-1.402343-1.398438zm0 0"/><path d="m426.800781 376h-110.199219c-6.402343 0-11.402343-5.199219-11.402343-11.398438v-9.601562c0-6.398438 5.199219-11.398438 11.402343-11.398438h110.199219c6.398438 0 11.398438 5.199219 11.398438 11.398438v9.601562c0 6.398438-5.199219 11.398438-11.398438 11.398438zm-110.199219-22.601562c-.800781 0-1.402343.601562-1.402343 1.402343v9.597657c0 .800781.601562 1.402343 1.402343 1.402343h110.199219c.800781 0 1.398438-.601562 1.398438-1.402343v-9.597657c0-.800781-.597657-1.402343-1.398438-1.402343zm0 0"/><path d="m437 353.398438h-110.199219c-6.402343 0-11.402343-5.199219-11.402343-11.398438v-9.601562c0-6.398438 5.203124-11.398438 11.402343-11.398438h110.199219c6.398438 0 11.398438 5.199219 11.398438 11.398438v9.601562c0 6.199219-5.199219 11.398438-11.398438 11.398438zm-110.199219-22.597657c-.800781 0-1.402343.597657-1.402343 1.398438v9.601562c0 .800781.601562 1.398438 1.402343 1.398438h110.199219c.800781 0 1.398438-.597657 1.398438-1.398438v-9.601562c0-.800781-.597657-1.398438-1.398438-1.398438zm0 0"/><path d="m426.800781 330.800781h-110.199219c-6.402343 0-11.402343-5.199219-11.402343-11.402343v-9.597657c0-6.402343 5.199219-11.402343 11.402343-11.402343h110.199219c6.398438 0 11.398438 5.203124 11.398438 11.402343v9.597657c0 6.203124-5.199219 11.402343-11.398438 11.402343zm-110.199219-22.800781c-.800781 0-1.402343.601562-1.402343 1.398438v9.601562c0 .800781.601562 1.398438 1.402343 1.398438h110.199219c.800781 0 1.398438-.597657 1.398438-1.398438v-9.601562c0-.796876-.597657-1.398438-1.398438-1.398438zm0 0"/><path d="m426.800781 444h-110.199219c-6.402343 0-11.402343-5.199219-11.402343-11.398438v-9.601562c0-6.398438 5.199219-11.398438 11.402343-11.398438h110.199219c6.398438 0 11.398438 5.199219 11.398438 11.398438v9.601562c0 6.199219-5.199219 11.398438-11.398438 11.398438zm-110.199219-22.601562c-.800781 0-1.402343.601562-1.402343 1.402343v9.597657c0 .800781.601562 1.402343 1.402343 1.402343h110.199219c.800781 0 1.398438-.601562 1.398438-1.402343v-9.597657c0-.800781-.597657-1.402343-1.398438-1.402343zm0 0"/><path d="m426.800781 421.398438h-110.199219c-6.402343 0-11.402343-5.199219-11.402343-11.398438v-9.601562c0-6.398438 5.199219-11.398438 11.402343-11.398438h110.199219c6.398438 0 11.398438 5.199219 11.398438 11.398438v9.601562c0 6.199219-5.199219 11.398438-11.398438 11.398438zm-110.199219-22.597657c-.800781 0-1.402343.597657-1.402343 1.398438v9.601562c0 .800781.601562 1.398438 1.402343 1.398438h110.199219c.800781 0 1.398438-.597657 1.398438-1.398438v-9.601562c0-.800781-.597657-1.398438-1.398438-1.398438zm0 0"/><path d="m426.800781 398.800781h-110.199219c-6.402343 0-11.402343-5.199219-11.402343-11.402343v-9.597657c0-6.402343 5.199219-11.402343 11.402343-11.402343h110.199219c6.398438 0 11.398438 5.203124 11.398438 11.402343v9.597657c0 6.203124-5.199219 11.402343-11.398438 11.402343zm-110.199219-22.800781c-.800781 0-1.402343.601562-1.402343 1.398438v9.601562c0 .800781.601562 1.398438 1.402343 1.398438h110.199219c.800781 0 1.398438-.597657 1.398438-1.398438v-9.601562c0-.796876-.597657-1.398438-1.398438-1.398438zm0 0"/><path d="m426.800781 512h-110.199219c-6.402343 0-11.402343-5.199219-11.402343-11.398438v-9.601562c0-6.398438 5.199219-11.398438 11.402343-11.398438h110.199219c6.398438 0 11.398438 5.199219 11.398438 11.398438v9.601562c0 6.199219-5.199219 11.398438-11.398438 11.398438zm-110.199219-22.601562c-.800781 0-1.402343.601562-1.402343 1.402343v9.597657c0 .800781.601562 1.402343 1.402343 1.402343h110.199219c.800781 0 1.398438-.601562 1.398438-1.402343v-9.597657c0-.800781-.597657-1.402343-1.398438-1.402343zm0 0"/><path d="m426.800781 489.398438h-110.199219c-6.402343 0-11.402343-5.199219-11.402343-11.398438v-9.601562c0-6.398438 5.199219-11.398438 11.402343-11.398438h110.199219c6.398438 0 11.398438 5.199219 11.398438 11.398438v9.601562c0 6.199219-5.199219 11.398438-11.398438 11.398438zm-110.199219-22.796876c-.800781 0-1.402343.597657-1.402343 1.398438v9.601562c0 .796876.601562 1.398438 1.402343 1.398438h110.199219c.800781 0 1.398438-.601562 1.398438-1.398438v-9.601562c0-.800781-.597657-1.398438-1.398438-1.398438zm0 0"/><path d="m426.800781 466.601562h-110.199219c-6.402343 0-11.402343-5.203124-11.402343-11.402343v-9.597657c0-6.402343 5.199219-11.402343 11.402343-11.402343h110.199219c6.398438 0 11.398438 5.199219 11.398438 11.402343v9.597657c0 6.402343-5.199219 11.402343-11.398438 11.402343zm-110.199219-22.601562c-.800781 0-1.402343.601562-1.402343 1.398438v9.601562c0 .800781.601562 1.398438 1.402343 1.398438h110.199219c.800781 0 1.398438-.597657 1.398438-1.398438v-9.601562c0-.796876-.597657-1.398438-1.398438-1.398438zm0 0"/><path d="m371.601562 308c-37 0-67-30-67-67s30-67 67-67 67 30 67 67-30 67-67 67zm0-124c-31.402343 0-57 25.601562-57 57s25.597657 57 57 57c31.398438 0 57-25.601562 57-57s-25.402343-57-57-57zm0 0"/><path d="m377 265h-16.800781c-2.800781 0-5-2.199219-5-5s2.199219-5 5-5h16.800781c2.398438 0 4.398438-2 4.398438-4.601562 0-2.398438-2-4.199219-4.398438-4.398438h-10.398438c-8 0-14.601562-6.199219-14.601562-14.199219s6.199219-14.601562 14.199219-14.601562h.402343 14.796876c2.800781 0 5 2.199219 5 5s-2.199219 5-5 5h-14.796876c-2.402343 0-4.402343 1.800781-4.601562 4.402343-.199219 2.597657 1.800781 4.398438 4.398438 4.597657h.203124 10.398438c8 0 14.398438 6.601562 14.199219 14.601562-.199219 7.800781-6.398438 14-14.199219 14.199219zm0 0"/><path d="m371.601562 271.398438c-2.800781 0-5-2.199219-5-5v-50.597657c0-2.800781 2.199219-5 5-5 2.796876 0 5 2.199219 5 5v50.597657c0 2.800781-2.203124 5-5 5zm0 0"/><path d="m371.601562 290.800781c-27.402343 0-49.800781-22.199219-49.800781-49.800781 0-27.398438 22.199219-49.800781 49.800781-49.800781 27.398438 0 49.796876 22.199219 49.796876 49.800781s-22.199219 49.800781-49.796876 49.800781zm0-89.601562c-22 0-39.800781 17.800781-39.800781 39.800781s17.800781 39.800781 39.800781 39.800781 39.796876-17.800781 39.796876-39.800781c0-21.800781-17.796876-39.601562-39.796876-39.800781zm0 0"/></g><path d="m222.199219 371c-34.199219 0-62-27.800781-62-62s27.800781-62 62-62 62 27.800781 62 62-27.800781 62-62 62zm0 0" fill="#fcd770"/><path d="m222.199219 264.199219c-24.800781 0-44.800781 20-44.800781 44.800781s20 44.800781 44.800781 44.800781 44.800781-20 44.800781-44.800781c-.199219-24.601562-20.199219-44.800781-44.800781-44.800781zm0 0" fill="#ffae2c"/><path d="m222.199219 376c-37 0-67-30-67-67s30-67 67-67 67 30 67 67-30 67-67 67zm0-124c-31.398438 0-57 25.601562-57 57s25.601562 57 57 57c31.402343 0 57-25.601562 57-57s-25.597657-57-57-57zm0 0" fill="#231f20"/><path d="m227.398438 333h-16.796876c-2.800781 0-5-2.199219-5-5s2.199219-5 5-5h16.796876c2.402343 0 4.402343-2 4.402343-4.601562 0-2.398438-2-4.199219-4.402343-4.398438h-10.398438c-8 0-14.601562-6.199219-14.601562-14.199219s6.203124-14.601562 14.203124-14.601562h.398438 14.800781c2.800781 0 5 2.199219 5 5s-2.199219 5-5 5h-14.800781c-2.398438 0-4.398438 1.800781-4.601562 4.402343 0 2.398438 1.800781 4.398438 4.402343 4.597657h.199219 10.398438c8 0 14.402343 6.601562 14.203124 14.601562 0 7.597657-6.402343 14-14.203124 14.199219zm0 0" fill="#231f20"/><path d="m222.199219 339.398438c-2.800781 0-5-2.199219-5-5v-50.597657c0-2.800781 2.199219-5 5-5s5 2.199219 5 5v50.597657c0 2.800781-2.398438 5-5 5zm0 0" fill="#231f20"/><path d="m222.199219 358.800781c-27.398438 0-49.800781-22.199219-49.800781-49.800781 0-27.398438 22.203124-49.800781 49.800781-49.800781 27.402343 0 49.800781 22.199219 49.800781 49.800781-.199219 27.398438-22.398438 49.800781-49.800781 49.800781zm0-89.601562c-22 0-39.800781 17.800781-39.800781 39.800781s17.800781 39.800781 39.800781 39.800781 39.800781-17.800781 39.800781-39.800781c-.199219-22-18-39.800781-39.800781-39.800781zm0 0" fill="#231f20"/><path d="m72.601562 416.398438c-34.203124 0-62-27.796876-62-62 0-34.199219 27.796876-62 62-62 34.199219 0 62 27.800781 62 62 0 34.203124-27.800781 62-62 62zm0 0" fill="#fcd770"/><path d="m72.601562 309.601562c-24.800781 0-44.800781 20-44.800781 44.796876 0 24.800781 20 44.800781 44.800781 44.800781 24.796876 0 44.796876-20 44.796876-44.800781 0-24.796876-20.199219-44.796876-44.796876-44.796876zm0 0" fill="#ffae2c"/><path d="m72.601562 421.398438c-37 0-67-30-67-67s30-67 67-67 67 30 67 67-30 67-67 67zm0-124c-31.601562 0-57 25.601562-57 57 0 31.402343 25.597657 57 57 57 31.398438 0 57-25.597657 57-57 0-31.597657-25.601562-57-57-57zm0 0" fill="#231f20"/><path d="m77.800781 378.199219h-16.800781c-2.800781 0-5-2.199219-5-5s2.199219-5 5-5h16.800781c2.398438 0 4.398438-2 4.398438-4.597657 0-2.402343-2-4.203124-4.398438-4.402343h-10.402343c-8 0-14.597657-6.199219-14.597657-14.199219s6.199219-14.601562 14.199219-14.601562h.398438 14.800781c2.800781 0 5 2.203124 5 5 0 2.800781-2.199219 5-5 5h-14.800781c-2.398438 0-4.398438 1.800781-4.597657 4.402343 0 2.398438 1.800781 4.398438 4.398438 4.597657h.199219 10.402343c8 0 14.398438 6.601562 14.199219 14.601562 0 7.800781-6.398438 14.199219-14.199219 14.199219zm0 0" fill="#231f20"/><path d="m72.601562 384.601562c-2.800781 0-5-2.203124-5-5v-50.601562c0-2.800781 2.199219-5 5-5 2.796876 0 5 2.199219 5 5v50.601562c0 2.796876-2.203124 5-5 5zm0 0" fill="#231f20"/><path d="m72.601562 404.199219c-27.402343 0-49.800781-22.199219-49.800781-49.800781 0-27.597657 22.199219-49.796876 49.800781-49.796876 27.597657 0 49.796876 22.199219 49.796876 49.796876 0 27.402343-22.398438 49.601562-49.796876 49.800781zm0-89.597657c-22 0-39.800781 17.796876-39.800781 39.796876s17.800781 39.800781 39.800781 39.800781 39.796876-17.800781 39.796876-39.800781-17.796876-39.796876-39.796876-39.796876zm0 0" fill="#231f20"/></svg>